# xmcd
#
# Track frame offsets:
#	150
#	15960
#	27826
#	44169
#	59645
#	71945
#	88981
#	108673
#	128344
#	146048
#	158302
#	172585
#	186967
#	205351
#	219758
#	235224
#	249568
#	266155
#
# Disc length: 3745 seconds
#
# Revision: 1
# Processed by: cddbd v1.5.2PL0 Copyright (c) Steve Scherf et al.
# Submitted via: audiograbber 1.83.01
#
DISCID=010e9f12
DTITLE=Various Artist - Get Country
DYEAR=2013
DGENRE=Country
TTITLE0=Florida Georgia Line - Cruise (Album Version)
TTITLE1=Eric Church - Over When It's Over
TTITLE2=Kip Moore - Hey Pretty Girl (Album Version)
TTITLE3=The Band Perry - Done. (Album Version)
TTITLE4=Easton Corbin - All Over The Road (Album Version)
TTITLE5=Gary Allan - Every Storm (Runs Out Of Rain) (Album Version)
TTITLE6=Rascal Flatts - Changed
TTITLE7=The Mavericks - Back In Your Arms Again
TTITLE8=David Nail - The Sound Of A Million Dreams (Album Version)
TTITLE9=Scotty McCreery - Water Tower Town
TTITLE10=Kacey Musgraves - Blowin' Smoke (Album Version)
TTITLE11=Dierks Bentley - Am I The Only One
TTITLE12=Darius Rucker - True Believers (Album Version)
TTITLE13=Greg Bates - Did It For The Girl
TTITLE14=Lee Kernaghan - Beautiful Noise
TTITLE15=Jasmine Rae - One Guy One Girl
TTITLE16=The Wolfe Brothers - It's On
TTITLE17=McAlister Kemp - Songs That Make Us Country
EXTD=
EXTT0=
EXTT1=
EXTT2=
EXTT3=
EXTT4=
EXTT5=
EXTT6=
EXTT7=
EXTT8=
EXTT9=
EXTT10=
EXTT11=
EXTT12=
EXTT13=
EXTT14=
EXTT15=
EXTT16=
EXTT17=
PLAYORDER=
